Coordinates
version=1
nRows=13
nColumns=36
inDegrees=yes

Units are S.I. units (second, meters, Newtons, ...)
If the header above contains a line with 'inDegrees', this indicates whether rotational values are in degrees (yes) or radians (no).

endheader
time	pelvis_tilt	pelvis_list	pelvis_rotation	pelvis_tx	pelvis_ty	pelvis_tz	hip_flexion_r	hip_adduction_r	hip_rotation_r	knee_angle_r	knee_angle_r_beta	ankle_angle_r	subtalar_angle_r	mtp_angle_r	hip_flexion_l	hip_adduction_l	hip_rotation_l	knee_angle_l	knee_angle_l_beta	ankle_angle_l	subtalar_angle_l	mtp_angle_l	lumbar_extension	lumbar_bending	lumbar_rotation	arm_flex_r	arm_add_r	arm_rot_r	elbow_flex_r	pro_sup_r	arm_flex_l	arm_add_l	arm_rot_l	elbow_flex_l	pro_sup_l
      1.25000000	     -3.86549028	      3.30966879	     -3.60398994	      0.02618013	      1.03739859	     -0.08016165	     35.36352380	      2.26186737	      6.16167158	     70.19537848	      1.22514047	     46.20211515	    -12.49862848	     -7.49999940	     35.00648569	     -0.19743252	      2.91076576	     70.18925057	      1.22503352	     39.17631085	    -15.70862709	     -7.49999940	    -19.74652864	      3.03040219	     -1.16840348	     18.41726714	    -17.18225414	     32.85816177	     36.55068618	     74.05876367	     18.65573419	    -14.94912162	     38.24755767	     40.74906474	     73.92609726
      1.26666670	     -3.98389940	      3.36563573	     -3.20526907	      0.03721825	      1.03385687	     -0.08134967	     34.93523905	      2.34044156	      6.39716626	     70.91357806	      1.23767542	     47.20058611	    -12.70812128	     -7.49999940	     34.67970989	      0.40243242	      3.55575426	     70.99413421	      1.23908139	     40.01845265	    -15.94843856	     -7.49999940	    -19.04834900	      2.96081844	     -1.38907440	     19.93449009	    -17.33454901	     32.36891090	     37.44032814	     74.10523857	     20.85833068	    -15.32034051	     37.43624302	     41.32243234	     73.82579740
      1.28333330	     -3.82654912	      3.47047624	     -2.68032806	      0.04588792	      1.03013609	     -0.08217218	     33.74791022	      2.15503861	      6.36705302	     71.16948481	      1.24214184	     47.99795048	    -13.02146009	     -7.49999945	     34.03727742	      1.22632040	      4.36057140	     71.40091746	      1.24618110	     41.00278132	    -15.99727885	     -7.49999945	    -19.31261223	      3.06175587	     -1.81923469	     19.16016892	    -18.18906112	     25.45561029	     45.55818881	     75.61418358	     20.83624172	    -15.82154246	     29.59986455	     47.03855523	     72.52762007
      1.30000000	     -4.83657496	      3.48409413	     -2.57208689	      0.05367745	      1.02354327	     -0.08165891	     34.14686740	      2.38380558	      6.59517001	     71.68841386	      1.25119886	     48.29682783	    -13.57970429	     -7.49999947	     34.55328281	      1.62004216	      4.98021463	     71.67562275	      1.25097561	     41.56138619	    -16.42009085	     -7.49999947	    -17.13811692	      3.12446955	     -1.78564780	     18.62503423	    -19.42176913	     22.04999502	     52.71864139	     76.66279078	     21.37388696	    -16.69895676	     25.07648015	     52.00024465	     72.14876774
      1.31666670	     -5.42137104	      3.46914257	     -2.41984329	      0.06586614	      1.02976125	     -0.08201696	     33.47066532	      2.52928302	      6.79090779	     70.89904181	      1.23742172	     48.18429146	    -14.29924477	     -7.49999950	     34.15851605	      2.09025953	      5.71419362	     70.99299530	      1.23906151	     41.91260324	    -16.89794240	     -7.49999950	    -15.02805239	      3.22810011	     -1.73407126	     17.06140380	    -20.06112827	     15.78814710	     61.56118962	     78.74968273	     20.16976378	    -17.22076478	     17.07987951	     59.02978888	     72.11318176
      1.33333330	     -6.50519850	      3.38521611	     -2.17763711	      0.07782082	      1.02978839	     -0.08102834	     33.29560988	      2.88656927	      7.06291806	     69.43978951	      1.21195296	     48.44378703	    -14.55248726	     -7.49999960	     33.97017834	      2.35719192	      6.37391676	     70.14645258	      1.22428656	     42.19645657	    -16.96370744	     -7.49999960	    -11.87843542	      3.35717339	     -1.98631983	     15.29483999	    -21.04169198	     11.61696788	     70.89789134	     84.90020747	     17.81781428	    -18.87571594	      9.65896167	     68.52573733	     74.65861213
      1.35000000	     -7.63599376	      3.27087779	     -1.97383107	      0.08683578	      1.03646198	     -0.08190580	     32.49574562	      2.99069720	      7.23277618	     66.86905009	      1.16708509	     48.01623643	    -14.58328063	     -7.49999961	     33.67414303	      2.38471350	      6.73653083	     68.47107787	      1.19504575	     41.14831061	    -17.23682319	     -7.49999961	     -8.39183217	      3.31458700	     -1.78796581	     13.19237127	    -22.52099016	      8.27295782	     79.90078047	     84.69244418	     16.32528293	    -20.90070509	      5.19358901	     77.05158818	     74.49512782
      1.36666670	     -8.67313456	      3.21689223	     -1.76913082	      0.09688170	      1.05427542	     -0.08206874	     31.22938859	      2.67187038	      7.08004111	     63.07782082	      1.10091566	     46.54175660	    -14.74246826	     -7.49999962	     32.62389134	      2.47647676	      7.18704527	     65.18791188	      1.13774369	     39.59428002	    -17.34584719	     -7.49999962	     -5.10105237	      3.23091171	     -1.48547391	     11.27613331	    -23.92671781	      6.04429832	     86.65694198	     84.57160606	     13.97489893	    -22.96785764	      1.95408353	     84.65436651	     74.49882497
      1.38333330	     -8.87706532	      2.99786948	     -1.52512033	      0.11222736	      1.07488930	     -0.08193718	     28.18877352	      2.33998783	      6.77029917	     57.71973295	      1.00739938	     44.92896990	    -13.61741544	     -7.49999966	     29.71118836	      2.10863920	      7.30728801	     60.73944832	      1.06010336	     37.58885772	    -16.85193951	     -7.49999966	     -2.93213313	      3.39269779	     -2.90050051	     11.17586949	    -24.58846690	      6.05581282	     90.45552820	     84.58346872	      9.34424330	    -24.80100942	     -4.34105535	     92.54200049	     75.22537441
      1.40000000	     -8.81665819	      2.75016941	     -1.49752776	      0.13026848	      1.09663469	     -0.08107183	     24.41963663	      1.87138957	      6.15807239	     52.25840610	      0.91208125	     41.83206409	    -12.92602068	     -7.49999971	     26.36348199	      1.49445644	      7.06750246	     55.79337552	      0.97377810	     34.30619266	    -16.31078950	     -7.49999971	     -1.10961224	      3.64577611	     -4.27360269	     11.04941177	    -25.52657709	      6.81572489	     93.49598283	     84.30691714	      4.22534774	    -26.93944842	     -9.26184508	     99.08673295	     76.19277206
      1.41666670	     -7.95566667	      2.58825112	     -1.31557069	      0.15320860	      1.12299916	     -0.07501202	     19.68002072	      1.36198954	      5.06710497	     46.81022126	      0.81699248	     37.75491615	    -12.38399686	     -7.49999972	     21.65197003	      0.62481199	      6.47090258	     50.55461782	      0.88234453	     29.83238895	    -15.68513595	     -7.49999972	     -0.13259225	      3.52524324	     -4.28553695	      8.71550579	    -25.95025605	      5.59748733	     96.07435945	     83.77556493	      0.33397271	    -29.15543164	    -11.17636783	    102.95877559	     76.04540103
      1.43333330	     -7.21316613	      2.65865703	     -1.17036102	      0.17568263	      1.14482174	     -0.07275671	     15.58313825	      0.68960928	      3.63417000	     42.61416732	      0.74375753	     33.08095143	    -11.76895976	     -7.49999977	     17.35673775	     -0.08458081	      5.38341804	     45.78052665	      0.79902092	     24.91238159	    -14.92358441	     -7.49999977	      0.53588837	      3.20562503	     -9.10796854	     12.29310448	    -26.00023410	     11.90128774	     95.00122874	     83.72228483	    -10.36864609	    -30.60082733	    -21.48482178	    109.50825052	     77.06798586
      1.45000000	     -6.27924922	      2.71689017	     -1.21378206	      0.19788913	      1.16427982	     -0.07067510	     12.65730870	     -0.02368660	      1.69669397	     40.69977615	      0.71034510	     27.31421944	    -11.52762907	     -7.49999978	     13.48795209	     -0.83077970	      3.87939677	     42.38656107	      0.73978505	     18.52890214	    -14.82613652	     -7.49999978	      1.05909432	      2.79081699	     -9.62442603	     10.57269070	    -27.28587552	     12.28812924	     96.95797483	     82.87492553	    -13.79904402	    -32.79449167	    -23.62073669	    111.42039670	     76.69460168
